<svg xmlns="http://www.w3.org/2000/svg" width="1600" height="900" viewBox="0 0 1600 900">
  <defs>
    <linearGradient id="bg" x1="0" y1="0" x2="1" y2="1">
      <stop offset="0" stop-color="#071426"/>
      <stop offset="1" stop-color="#15294a"/>
    </linearGradient>
    <linearGradient id="accent" x1="0" y1="0" x2="1" y2="0">
      <stop offset="0" stop-color="#44d7b6"/>
      <stop offset="1" stop-color="#53a8ff"/>
    </linearGradient>
  </defs>
  <rect width="1600" height="900" fill="url(#bg)"/>
  <circle cx="1320" cy="110" r="330" fill="#1b3d69" opacity=".45"/>
  <circle cx="180" cy="820" r="300" fill="#0f554f" opacity=".35"/>
  <rect x="110" y="110" width="1380" height="680" rx="42" fill="#081827" stroke="#315477" stroke-width="3"/>
  <rect x="165" y="165" width="112" height="112" rx="26" fill="url(#accent)"/>
  <path d="M205 218h32v-32h18v32h32v18h-32v32h-18v-32h-32z" fill="#071426"/>
  <text x="320" y="235" fill="#eff8ff" font-family="Segoe UI, Arial, sans-serif" font-size="84" font-weight="700">T3 SDK Doctor</text>
  <text x="170" y="355" fill="#9fbad1" font-family="Segoe UI, Arial, sans-serif" font-size="38">Compatibility, security, and onboarding diagnostics</text>
  <rect x="170" y="430" width="1260" height="210" rx="24" fill="#0c2135" stroke="#244c68" stroke-width="2"/>
  <text x="220" y="500" fill="#ff8296" font-family="Consolas, monospace" font-size="34" font-weight="700">FAIL  Node 16</text>
  <text x="580" y="500" fill="#dcefff" font-family="Consolas, monospace" font-size="31">WebAssembly CompileError</text>
  <text x="220" y="565" fill="#55e3bd" font-family="Consolas, monospace" font-size="34" font-weight="700">PASS  Node 18 / 20 / 22</text>
  <text x="220" y="620" fill="#9fbad1" font-family="Consolas, monospace" font-size="25">BBS+ signed health credential verified</text>
  <rect x="170" y="690" width="460" height="6" rx="3" fill="url(#accent)"/>
  <text x="170" y="750" fill="#bcd1e1" font-family="Segoe UI, Arial, sans-serif" font-size="28">Terminal 3 Agent Dev Kit · Bug Discovery Bounty</text>
</svg>
